<svg id="Capa_1" enable-background="new 0 0 512 512" height="512" viewBox="0 0 512 512" width="512" xmlns="http://www.w3.org/2000/svg"><g><path d="m0 15.167v364.543h512v-364.543zm405 30v304.543h-302v-304.543zm-375 0h43v304.543h-43zm452 304.543h-47v-304.543h47z"/><path d="m351.161 198.408-175.322-101.222v202.444zm-145.322-49.26 85.321 49.26-85.321 49.26z"/><path d="m254 400.833c-21.229 0-39.272 13.859-45.587 33h-208.413v30h208.413c6.315 19.141 24.357 33 45.587 33s39.272-13.859 45.587-33h212.413v-30h-212.413c-6.315-19.141-24.358-33-45.587-33zm0 66c-9.925 0-18-8.075-18-18s8.075-18 18-18 18 8.075 18 18-8.075 18-18 18z"/></g></svg>